<?xml version="1.0" standalone="no"?><!DOCTYPE svg PUBLIC "-//W3C//DTD SVG 1.1//EN" "http://www.w3.org/Graphics/SVG/1.1/DTD/svg11.dtd"><svg t="1678208068536" class="icon" viewBox="0 0 1099 1024" version="1.1" xmlns="http://www.w3.org/2000/svg" p-id="1031" xmlns:xlink="http://www.w3.org/1999/xlink" width="214.6484375" height="200"><path d="M921.86368156 991.75341688H172.76383438a23.62469906 23.62469906 0 1 1 0-46.75721719h749.09984718a23.62469906 23.62469906 0 0 1 0 46.75721719z" fill="#5586FF" p-id="1032"></path><path d="M32 32m207.70048313 0l614.73436781 0q207.70048313 0 207.70048312 207.70048313l0 427.21331624q0 207.70048313-207.70048312 207.70048313l-614.73436781 0q-207.70048313 0-207.70048313-207.70048313l0-427.21331624q0-207.70048313 207.70048313-207.70048313Z" fill="#5FA0FF" p-id="1033"></path><path d="M559.1261075 608.34423125a23.62469906 23.62469906 0 0 1-16.73416219-6.89053688l-147.65437218-147.65437218-98.43624751 98.43624843a23.62469906 23.62469906 0 0 1-32.97614343 0 24.60906188 24.60906188 0 0 1 0-33.46832437l117.13913531-117.13913531a23.62469906 23.62469906 0 0 1 32.97614344 0l147.65437125 147.65437218 240.67662656-241.1688075a23.62469906 23.62469906 0 0 1 32.97614344 0 22.64033719 22.64033719 0 0 1 0 32.9761425l-257.41078875 257.90296969a23.13251813 23.13251813 0 0 1-18.21070594 9.35144344z" fill="#D9EAFF" p-id="1034"></path></svg>